<svg width="151" height="90" viewBox="0 0 151 90" fill="none" xmlns="http://www.w3.org/2000/svg">
<path d="M18.688 90H10.112V8.976H8.576V44.432H0V0.399994H28.8V44.432H20.224V8.976H18.688V90ZM49.063 90H40.487V64.656H38.951V90H30.375V0.399994H38.951V45.968H40.487V20.624H49.063V50.32C49.063 51.5147 48.6363 52.5387 47.783 53.392C47.015 54.16 46.0337 54.544 44.839 54.544H38.951V56.08H44.839C46.0337 56.08 47.015 56.5067 47.783 57.36C48.6363 58.2133 49.063 59.2373 49.063 60.432V90ZM79.438 90H70.862V54.544H69.326V90H60.75V0.399994H75.214C76.4087 0.399994 77.39 0.82666 78.158 1.67999C79.0113 2.44799 79.438 3.42933 79.438 4.62399V40.08C79.438 41.2747 79.0113 42.2987 78.158 43.152C77.39 44.0053 76.4087 44.432 75.214 44.432H69.326V45.968H75.214C76.4087 45.968 77.39 46.3947 78.158 47.248C79.0113 48.1013 79.438 49.1253 79.438 50.32V90ZM69.326 35.856H70.862V8.976H69.326V35.856ZM99.688 90H85.224C84.0293 90 83.0053 89.616 82.152 88.848C81.384 87.9947 81 86.9707 81 85.776V55.312C81 54.1173 81.384 53.136 82.152 52.368C83.0053 51.5147 84.0293 51.088 85.224 51.088H91.112V29.2H89.576V49.552H81V24.976C81 23.7813 81.384 22.7573 82.152 21.904C83.0053 21.0507 84.0293 20.624 85.224 20.624H95.464C96.6587 20.624 97.64 21.0507 98.408 21.904C99.2613 22.7573 99.688 23.7813 99.688 24.976V90ZM89.576 81.424H91.112V59.664H89.576V81.424ZM105.474 90C104.279 90 103.255 89.616 102.402 88.848C101.634 87.9947 101.25 86.9707 101.25 85.776V24.976C101.25 23.7813 101.634 22.7573 102.402 21.904C103.255 21.0507 104.279 20.624 105.474 20.624H111.362V0.399994H119.938V90H105.474ZM111.362 29.2H109.826V81.424H111.362V29.2ZM121.5 90V20.624H130.076V90H121.5ZM130.076 0.399994V19.088H121.5V0.399994H130.076ZM150.313 85.776C150.313 86.9707 149.886 87.9947 149.033 88.848C148.18 89.616 147.156 90 145.961 90H135.849C134.654 90 133.63 89.616 132.777 88.848C132.009 87.9947 131.625 86.9707 131.625 85.776V24.976C131.625 23.7813 132.009 22.7573 132.777 21.904C133.63 21.0507 134.654 20.624 135.849 20.624H145.961C147.156 20.624 148.18 21.0507 149.033 21.904C149.886 22.7573 150.313 23.7813 150.313 24.976V85.776ZM141.737 29.2H140.201V81.424H141.737V29.2Z" fill="#6DA8C5"/>
</svg>
